<?xml version="1.0" encoding="utf-8"?>

<!DOCTYPE svg PUBLIC "-//W3C//DTD SVG 1.1//EN" "http://www.w3.org/Graphics/SVG/1.1/DTD/svg11.dtd">
<!-- Uploaded to: SVG Repo, www.svgrepo.com, Generator: SVG Repo Mixer Tools -->
<svg height="800px" width="800px" version="1.1" id="_x32_" xmlns="http://www.w3.org/2000/svg" xmlns:xlink="http://www.w3.org/1999/xlink" 
	 viewBox="0 0 512 512"  xml:space="preserve">
<style type="text/css">
	.st0{fill:#000000;}
</style>
<g>
	<path class="st0" d="M371.891,118.434l-22.593-35.358c1.015-0.844,2.077-1.641,3.015-2.594l-0.015,0.023
		c7.343-7.305,11.905-17.539,11.905-28.694V40.577c0-11.14-4.546-21.312-11.835-28.625l0.32,0.298l-0.359-0.36
		c-0.016,0-0.016-0.007-0.016-0.007c-7.234-7.242-17.296-11.765-28.327-11.867c-0.016,0-0.125,0-0.187,0
		C323.768,0.008,323.721,0,323.674,0v0.008c-0.078-0.008-0.117,0.008-0.218,0.008h-67.451h-67.608c-0.031,0-0.047-0.008-0.07-0.008
		c-11.132,0.008-21.327,4.539-28.624,11.851l0.305-0.312l-0.329,0.336c0,0,0,0-0.015,0.007v0.008
		c-7.312,7.312-11.859,17.508-11.875,28.679v11.234c0.016,11.156,4.562,21.374,11.89,28.686l-0.007-0.015
		c0.945,0.953,2.007,1.75,3.038,2.594l-22.601,35.358c-17.382,27.202-26.624,58.834-26.624,91.122v216.993
		c0.016,47.194,38.241,85.435,85.458,85.451h114.122c47.202-0.016,85.435-38.257,85.45-85.451V209.556
		C398.515,177.268,389.281,145.636,371.891,118.434z M364.203,426.549c0,14.164-5.702,26.858-14.983,36.163
		c-9.297,9.273-22,14.96-36.155,14.976H198.943c-14.171-0.016-26.874-5.703-36.17-14.976c-9.281-9.304-14.968-21.999-14.984-36.163
		V209.556c0-25.749,7.359-50.959,21.234-72.654l37.389-58.537c2.61-4.07,2.782-9.195,0.454-13.445
		c-2.321-4.25-6.726-6.843-11.562-6.843h-6.938c-1.782-0.016-3.258-0.688-4.437-1.844c-1.141-1.172-1.821-2.649-1.828-4.422V40.577
		c0.007-1.766,0.687-3.25,1.828-4.422c1.179-1.156,2.656-1.828,4.437-1.828h67.639h67.638c1.765,0,3.25,0.672,4.414,1.828
		c1.164,1.172,1.836,2.657,1.836,4.422v11.234c0,1.773-0.672,3.25-1.836,4.422c-1.164,1.156-2.649,1.828-4.414,1.844h-6.945
		c-4.836,0-9.242,2.594-11.57,6.843c-2.328,4.25-2.157,9.375,0.453,13.445l37.405,58.537c13.844,21.695,21.218,46.905,21.218,72.654
		V426.549z"/>
	<path class="st0" d="M184.74,234.509v192.025c0,4.859,2.281,8.172,4.125,10.031c1.922,1.898,5.218,4.172,10.078,4.179h114.09
		c4.874-0.007,8.187-2.289,10.023-4.117c1.914-1.922,4.195-5.234,4.195-10.078V226.29
		C258.27,264.664,254.879,192.681,184.74,234.509z"/>
</g>
</svg>